<svg width="130" height="50" viewBox="0 0 130 50" fill="none" xmlns="http://www.w3.org/2000/svg">
<g filter="url(#filter0_d_1_2)">
<path d="M29.1559 0H22.9C12.4618 0 4 8.05887 4 18V23.958C4 33.8991 12.4618 41.958 22.9 41.958H29.1559C39.5941 41.958 48.0559 33.8991 48.0559 23.958V18C48.0559 8.05887 39.5941 0 29.1559 0Z" fill="#070707"/>
<mask id="mask0_1_2" style="mask-type:luminance" maskUnits="userSpaceOnUse" x="14" y="10" width="24" height="22">
<path d="M37.4825 10.0699H14.5734V31.8881H37.4825V10.0699Z" fill="white"/>
</mask>
<g mask="url(#mask0_1_2)">
<path d="M34.695 18.3092C34.695 13.766 30.8139 10.0699 26.0436 10.0699C21.2732 10.0699 17.3923 13.766 17.3923 18.3092C17.3923 20.1943 18.7806 22.8682 21.5186 26.2566C22.3384 27.271 23.1523 28.1924 23.8327 28.9313V31.2388C23.8327 31.5973 24.1378 31.8881 24.5146 31.8881H27.5727C27.9493 31.8881 28.2546 31.5973 28.2546 31.2388V28.9313C28.935 28.1924 29.7489 27.271 30.5687 26.2566C33.3067 22.8682 34.695 20.1943 34.695 18.3092ZM33.3313 18.3092C33.3313 20.1136 31.5683 22.8467 29.6377 25.272H28.7815C29.8155 22.313 30.3396 19.973 30.3396 18.3092C30.3396 16.1915 29.942 14.1902 29.2203 12.6742C29.0827 12.3856 28.9355 12.1199 28.7798 11.8769C31.4463 12.9092 33.3313 15.4033 33.3313 18.3092ZM26.8909 30.5894H25.1964V29.3346H26.8909V30.5894ZM27.2695 28.0359H24.8234C24.425 27.6025 23.9818 27.1076 23.5213 26.5709H24.2532L24.2588 26.5711L28.566 26.5709C28.1207 27.0924 27.6821 27.5858 27.2695 28.0359ZM26.0436 11.3687C26.7158 11.3687 27.4209 12.04 27.9782 13.2105C28.6216 14.5617 28.9758 16.3724 28.9758 18.3092C28.9758 19.8857 28.4117 22.2879 27.3426 25.272H24.745C23.6754 22.2876 23.1113 19.8862 23.1113 18.3092C23.1113 16.3724 23.4656 14.5617 24.1091 13.2105C24.6664 12.04 25.3715 11.3687 26.0436 11.3687ZM18.756 18.3092C18.756 15.4033 20.641 12.9092 23.3075 11.8769C23.1518 12.1199 23.0045 12.3856 22.867 12.6742C22.1452 14.1902 21.7477 16.1915 21.7477 18.3092C21.7477 19.9735 22.2716 22.3132 23.3056 25.272H22.4451C20.0312 22.2511 18.756 19.8461 18.756 18.3092Z" fill="white"/>
</g>
<path d="M53.4688 15.2322V13.0909H62.6893V15.2322H59.3814V24H56.782V15.2322H53.4688ZM63.1274 24V15.8182H65.6576V17.3097H65.7428C65.892 16.7699 66.1352 16.3686 66.4726 16.1058C66.8099 15.8395 67.2023 15.7063 67.6498 15.7063C67.7705 15.7063 67.8948 15.7152 68.0226 15.733C68.1505 15.7472 68.2694 15.7702 68.3795 15.8022V18.0661C68.2552 18.0234 68.0919 17.9897 67.8895 17.9648C67.6906 17.94 67.5131 17.9276 67.3568 17.9276C67.0479 17.9276 66.7691 17.9968 66.5205 18.1353C66.2755 18.2702 66.0819 18.4602 65.9399 18.7053C65.8014 18.9467 65.7322 19.2308 65.7322 19.5575V24H63.1274ZM71.4397 24.1385C70.9177 24.1385 70.4543 24.0515 70.0494 23.8775C69.6482 23.6999 69.3303 23.4336 69.096 23.0785C68.8651 22.7198 68.7497 22.2706 68.7497 21.7308C68.7497 21.2763 68.8296 20.8928 68.9894 20.5803C69.1492 20.2678 69.3694 20.0138 69.6499 19.8185C69.9305 19.6232 70.2536 19.4759 70.6194 19.3764C70.9852 19.2734 71.3758 19.2042 71.7913 19.1687C72.2565 19.1261 72.6311 19.0817 72.9152 19.0355C73.1993 18.9858 73.4053 18.9165 73.5331 18.8278C73.6645 18.7354 73.7302 18.6058 73.7302 18.4389V18.4123C73.7302 18.1388 73.6361 17.9276 73.4479 17.7784C73.2597 17.6293 73.0058 17.5547 72.6862 17.5547C72.3417 17.5547 72.0647 17.6293 71.8552 17.7784C71.6457 17.9276 71.5125 18.1335 71.4557 18.3963L69.0534 18.3111C69.1244 17.8139 69.3073 17.37 69.602 16.9794C69.9003 16.5852 70.3087 16.2763 70.8271 16.0526C71.3492 15.8253 71.9759 15.7116 72.7075 15.7116C73.2295 15.7116 73.7107 15.7738 74.151 15.8981C74.5914 16.0188 74.9749 16.1964 75.3016 16.4308C75.6283 16.6616 75.8804 16.9457 76.058 17.283C76.2391 17.6204 76.3296 18.0057 76.3296 18.4389V24H73.8794V22.8601H73.8154C73.6698 23.1371 73.4834 23.3714 73.2561 23.5632C73.0324 23.755 72.7678 23.8988 72.4624 23.9947C72.1606 24.0906 71.8197 24.1385 71.4397 24.1385ZM72.2441 22.4339C72.5246 22.4339 72.7767 22.3771 73.0004 22.2635C73.2277 22.1499 73.4088 21.9936 73.5438 21.7947C73.6787 21.5923 73.7462 21.358 73.7462 21.0916V20.3139C73.6716 20.353 73.5811 20.3885 73.4745 20.4205C73.3715 20.4524 73.2579 20.4826 73.1336 20.511C73.0093 20.5394 72.8815 20.5643 72.7501 20.5856C72.6187 20.6069 72.4926 20.6264 72.3719 20.6442C72.1269 20.6832 71.9173 20.7436 71.7433 20.8253C71.5729 20.907 71.4415 21.0135 71.3492 21.1449C71.2604 21.2727 71.216 21.4254 71.216 21.603C71.216 21.8729 71.3119 22.0788 71.5036 22.2209C71.699 22.3629 71.9458 22.4339 72.2441 22.4339ZM85.5661 15.8182L82.759 24H79.776L76.9742 15.8182H79.7174L81.2249 21.4538H81.3101L82.8229 15.8182H85.5661ZM90.1258 24.1545C89.27 24.1545 88.5313 23.9858 87.9099 23.6484C87.292 23.3075 86.8161 22.8228 86.4823 22.1942C86.1521 21.5621 85.9869 20.8111 85.9869 19.9411C85.9869 19.0959 86.1539 18.3572 86.4877 17.7251C86.8215 17.0895 87.292 16.5959 87.8992 16.2443C88.5065 15.8892 89.222 15.7116 90.0459 15.7116C90.6283 15.7116 91.161 15.8022 91.6439 15.9833C92.1269 16.1644 92.5441 16.4325 92.8957 16.7876C93.2472 17.1428 93.5207 17.5813 93.716 18.1033C93.9113 18.6218 94.009 19.2166 94.009 19.8878V20.5376H86.8978V19.0249H91.5853C91.5818 18.7479 91.5161 18.5011 91.3882 18.2844C91.2604 18.0678 91.0846 17.8991 90.8609 17.7784C90.6407 17.6541 90.3868 17.592 90.0992 17.592C89.808 17.592 89.547 17.6577 89.3161 17.7891C89.0853 17.9169 88.9024 18.0927 88.7675 18.3164C88.6325 18.5366 88.5615 18.7869 88.5544 19.0675V20.6069C88.5544 20.9407 88.6201 21.2337 88.7515 21.4858C88.8829 21.7344 89.0693 21.9279 89.3108 22.0664C89.5523 22.2049 89.8399 22.2741 90.1737 22.2741C90.4046 22.2741 90.6141 22.2422 90.8023 22.1783C90.9905 22.1143 91.1521 22.0202 91.287 21.896C91.422 21.7717 91.5232 21.619 91.5906 21.4379L93.9823 21.5071C93.8829 22.0433 93.6645 22.5103 93.3271 22.908C92.9933 23.3022 92.5548 23.6094 92.0115 23.8295C91.4681 24.0462 90.8396 24.1545 90.1258 24.1545ZM97.9441 13.0909V24H95.3393V13.0909H97.9441Z" fill="black"/>
</g>
<defs>
<filter id="filter0_d_1_2" x="0" y="0" width="134" height="50" filterUnits="userSpaceOnUse" color-interpolation-filters="sRGB">
<feFlood flood-opacity="0" result="BackgroundImageFix"/>
<feColorMatrix in="SourceAlpha" type="matrix" values="0 0 0 0 0 0 0 0 0 0 0 0 0 0 0 0 0 0 127 0" result="hardAlpha"/>
<feOffset dy="4"/>
<feGaussianBlur stdDeviation="2"/>
<feComposite in2="hardAlpha" operator="out"/>
<feColorMatrix type="matrix" values="0 0 0 0 0 0 0 0 0 0 0 0 0 0 0 0 0 0 0.25 0"/>
<feBlend mode="normal" in2="BackgroundImageFix" result="effect1_dropShadow_1_2"/>
<feBlend mode="normal" in="SourceGraphic" in2="effect1_dropShadow_1_2" result="shape"/>
</filter>
</defs>
</svg>
